<svg width="632" height="264" viewBox="0 0 632 264" fill="none" xmlns="http://www.w3.org/2000/svg">
<path d="M222.405 197.212H413.948M-79.7098 -127.967L-79.7098 264M-54.1707 -127.967L-54.1708 264M-28.6317 -127.967L-28.6317 264M-3.09271 -127.967L-3.09272 264M22.4463 -127.967L22.4463 264M47.9853 -127.967L47.9853 264M73.5244 -127.967L73.5244 264M99.0634 -127.967L99.0634 264M124.602 -127.967L124.602 264M-80 248.398H711.71M150.141 -127.967L150.141 264M-80 224.311H711.71M175.68 -127.967L175.68 264M-80 200.223H711.71M201.22 -127.967L201.219 264M-80 176.136H711.71M226.759 -127.967L226.758 264M-80 152.048H711.71M252.298 -127.967L252.298 264M-80 127.961H711.71M277.837 -127.967L277.837 264M-80 103.874H711.71M303.376 -127.967L303.376 264M-80 79.7864H711.71M328.915 -127.967L328.915 264M-80 55.699H711.71M354.454 -127.967L354.454 264M-80 31.6116H711.71M379.993 -127.967L379.993 264M-80 7.52424H711.71M405.532 -127.967L405.532 264M-80 -16.5631H711.71M431.071 -127.967L431.071 264M-80 -40.6505H711.71M456.61 -127.967L456.61 264M-80 -64.7379H711.71M482.149 -127.967L482.149 264M-80 -88.8253H711.71M507.688 -127.967L507.688 264M-80 -112.913H711.71M533.227 -127.967V264M-80 -137L711.71 -137M558.766 -127.967V264M584.305 -127.967V264M609.844 -127.967V264M635.383 -127.967V264M660.922 -127.967V264M686.461 -127.967V264M712 -127.967V264" stroke="url(#paint0_radial_423_4402)"/>
<defs>
<radialGradient id="paint0_radial_423_4402" cx="0" cy="0" r="1" gradientUnits="userSpaceOnUse" gradientTransform="translate(316 39.7026) rotate(90) scale(224.297 443.001)">
<stop stop-color="white" stop-opacity="0.12"/>
<stop offset="0.6" stop-color="white" stop-opacity="0"/>
</radialGradient>
</defs>
</svg>
