<svg width="20" height="20" viewBox="0 0 20 20" fill="none" xmlns="http://www.w3.org/2000/svg">
<path fill-rule="evenodd" clip-rule="evenodd" d="M3.0625 11.7014C3.0625 11.4901 3.14645 11.2874 3.29588 11.138C3.44531 10.9886 3.64798 10.9046 3.85931 10.9046H13.4211C14.055 10.9046 14.6631 10.6528 15.1114 10.2045C15.5597 9.75619 15.8115 9.14817 15.8115 8.51418V5.32693C15.8115 5.11561 15.8955 4.91293 16.0449 4.7635C16.1943 4.61407 16.397 4.53012 16.6083 4.53012C16.8196 4.53012 17.0223 4.61407 17.1717 4.7635C17.3212 4.91293 17.4051 5.11561 17.4051 5.32693V8.51418C17.4051 9.57082 16.9854 10.5842 16.2382 11.3313C15.4911 12.0785 14.4777 12.4982 13.4211 12.4982H3.85931C3.64798 12.4982 3.44531 12.4143 3.29588 12.2649C3.14645 12.1154 3.0625 11.9128 3.0625 11.7014Z" fill="white"/>
<path fill-rule="evenodd" clip-rule="evenodd" d="M3.2958 12.2644C3.14642 12.115 3.0625 11.9124 3.0625 11.7011C3.0625 11.4898 3.14642 11.2872 3.2958 11.1377L6.48305 7.95048C6.63333 7.80534 6.8346 7.72502 7.04353 7.72684C7.25245 7.72865 7.4523 7.81245 7.60003 7.96019C7.74777 8.10792 7.83157 8.30777 7.83338 8.5167C7.8352 8.72562 7.75489 8.92689 7.60974 9.07717L4.98584 11.7011L7.60974 14.325C7.68584 14.3985 7.74655 14.4864 7.78831 14.5836C7.83007 14.6808 7.85205 14.7854 7.85297 14.8912C7.85389 14.997 7.83373 15.1019 7.79366 15.1998C7.7536 15.2978 7.69443 15.3867 7.61962 15.4616C7.5448 15.5364 7.45584 15.5955 7.35791 15.6356C7.25998 15.6757 7.15506 15.6958 7.04926 15.6949C6.94346 15.694 6.8389 15.672 6.74169 15.6302C6.64447 15.5885 6.55655 15.5278 6.48305 15.4517L3.2958 12.2644Z" fill="white"/>
</svg>
