<svg width="32" height="32" viewBox="0 0 32 32" fill="none" xmlns="http://www.w3.org/2000/svg">
<path d="M25.5785 10.4066L21.6252 6.45064C18.9225 3.74397 17.5718 2.3933 16.1198 2.7133C14.6678 3.0333 14.0118 4.8293 12.6958 8.41997L11.8052 10.8506C11.4545 11.808 11.2785 12.2866 10.9625 12.6573C10.8212 12.824 10.66 12.9726 10.4825 13.1C10.0878 13.384 9.59717 13.5186 8.61584 13.7893C6.4025 14.4 5.2945 14.7053 4.87717 15.4293C4.69676 15.7427 4.60289 16.0984 4.60517 16.46C4.6105 17.296 5.4225 18.108 7.04517 19.7333L8.93317 21.6213L2.96517 27.5946C2.78331 27.7874 2.68375 28.0435 2.68761 28.3085C2.69147 28.5735 2.79846 28.8265 2.98586 29.0139C3.17326 29.2013 3.42632 29.3083 3.69132 29.3122C3.95631 29.3161 4.21239 29.2165 4.40517 29.0346L10.3718 23.0613L12.3265 25.0186C13.9612 26.6533 14.7785 27.472 15.6198 27.472C15.9732 27.472 16.3212 27.3813 16.6292 27.2053C17.3598 26.788 17.6665 25.6733 18.2812 23.4426C18.5505 22.4626 18.6852 21.9733 18.9678 21.5773C19.0923 21.4049 19.2354 21.2484 19.3972 21.108C19.7638 20.7906 20.2398 20.612 21.1905 20.2546L23.6492 19.3306C27.2012 17.9973 28.9772 17.3293 29.2892 15.8826C29.6025 14.4346 28.2625 13.092 25.5785 10.4066Z" fill="black"/>
</svg>
