<svg width="80" height="80" viewBox="0 0 80 80" fill="none" xmlns="http://www.w3.org/2000/svg">
<path d="M70.5673 6.86675C68.1781 6.45365 65.7585 6.24179 63.3339 6.23341C55.0618 6.22663 46.9622 8.59866 40.0006 13.0667C33.0211 8.65732 24.9228 6.34352 16.6673 6.40008C14.2427 6.40846 11.8231 6.62031 9.43394 7.03341C8.6513 7.16834 7.94254 7.57827 7.43532 8.18939C6.92809 8.8005 6.65573 9.57264 6.66727 10.3667V50.3667C6.66014 50.8565 6.76103 51.3419 6.96277 51.7882C7.16452 52.2346 7.46216 52.631 7.83452 52.9492C8.20688 53.2675 8.6448 53.4998 9.11713 53.6295C9.58946 53.7593 10.0846 53.7834 10.5673 53.7001C15.344 52.873 20.2379 53.0103 24.9608 54.1037C29.6837 55.1971 34.14 57.2246 38.0673 60.0668L38.4673 60.3001H38.8339C39.2032 60.4559 39.5999 60.5362 40.0006 60.5362C40.4014 60.5362 40.7981 60.4559 41.1673 60.3001H41.5339L41.9339 60.0668C45.8338 57.1611 50.2773 55.0679 55.0011 53.9113C59.7249 52.7546 64.6328 52.5581 69.4339 53.3334C69.9166 53.4167 70.4118 53.3927 70.8841 53.2629C71.3564 53.1331 71.7943 52.9008 72.1667 52.5826C72.5391 52.2643 72.8367 51.8679 73.0384 51.4216C73.2402 50.9752 73.3411 50.4899 73.3339 50.0001V10.0001C73.2993 9.24059 73.006 8.51578 72.5028 7.94587C71.9995 7.37596 71.3166 6.9952 70.5673 6.86675ZM36.6673 51.1667C30.4988 47.9261 23.6352 46.2331 16.6673 46.2334H13.3339V12.9001C14.4442 12.8383 15.557 12.8383 16.6673 12.9001C23.7786 12.8922 30.7347 14.979 36.6673 18.9001V51.1667ZM66.6673 46.3667H63.3339C56.366 46.3665 49.5024 48.0595 43.3339 51.3001V18.9001C49.2666 14.979 56.2227 12.8922 63.3339 12.9001C64.4442 12.8383 65.557 12.8383 66.6673 12.9001V46.3667ZM70.5673 60.2001C68.1781 59.787 65.7585 59.5751 63.3339 59.5668C55.0618 59.56 46.9622 61.932 40.0006 66.4001C33.039 61.932 24.9394 59.56 16.6673 59.5668C14.2427 59.5751 11.8231 59.787 9.43394 60.2001C9.00003 60.2689 8.58402 60.4229 8.20982 60.6531C7.83561 60.8833 7.51061 61.1852 7.2535 61.5414C6.99638 61.8977 6.81223 62.3012 6.71162 62.7289C6.61101 63.1566 6.59594 63.5999 6.66727 64.0334C6.83667 64.899 7.34224 65.6622 8.07324 66.1558C8.80424 66.6494 9.70107 66.8331 10.5673 66.6668C15.344 65.8397 20.2379 65.9769 24.9608 67.0703C29.6837 68.1638 34.14 70.1913 38.0673 73.0334C38.6318 73.4354 39.3076 73.6514 40.0006 73.6514C40.6936 73.6514 41.3694 73.4354 41.9339 73.0334C45.8612 70.1913 50.3175 68.1638 55.0404 67.0703C59.7633 65.9769 64.6572 65.8397 69.4339 66.6668C70.3001 66.8331 71.197 66.6494 71.928 66.1558C72.659 65.6622 73.1645 64.899 73.3339 64.0334C73.4053 63.5999 73.3902 63.1566 73.2896 62.7289C73.189 62.3012 73.0048 61.8977 72.7477 61.5414C72.4906 61.1852 72.1656 60.8833 71.7914 60.6531C71.4172 60.4229 71.0012 60.2689 70.5673 60.2001Z" fill="white"/>
</svg>
