<svg width="80" height="80" viewBox="0 0 80 80" fill="none" xmlns="http://www.w3.org/2000/svg">
<path fill-rule="evenodd" clip-rule="evenodd" d="M27.8858 20.9543H12.2286V13.5429C12.2263 11.4666 13.049 9.47446 14.5155 8.00471C15.982 6.53496 17.9723 5.70799 20.0486 5.70571C22.1249 5.70344 24.117 6.52605 25.5868 7.99259C27.0565 9.45912 27.8835 11.4494 27.8858 13.5257V20.9543ZM47.7943 27.6514C46.8937 25.654 45.4352 23.9594 43.5942 22.7713C41.7532 21.5832 39.6082 20.9522 37.4172 20.9543H33.6V7.82857C33.6 5.75231 34.4248 3.76108 35.893 2.29294C37.3611 0.824794 39.3523 0 41.4286 0C43.5049 0 45.4961 0.824794 46.9642 2.29294C48.4324 3.76108 49.2572 5.75231 49.2572 7.82857V23.0914C49.2572 24.7943 48.7143 26.3657 47.7943 27.6514ZM37.7886 28.1086C38.7745 28.193 39.7001 28.6187 40.4058 29.3123C41.1116 30.0059 41.5533 30.9239 41.6548 31.9082C41.7564 32.8925 41.5114 33.8814 40.9621 34.7045C40.4128 35.5275 39.5937 36.1332 38.6458 36.4171L26.6058 40.0743C25.7913 40.3266 25.0939 40.862 24.6398 41.5836C24.1857 42.3053 24.0047 43.1656 24.1296 44.0091C24.2546 44.8525 24.6772 45.6235 25.321 46.1825C25.9648 46.7415 26.7874 47.0518 27.64 47.0571C29.68 47.0571 32.28 48.0743 34.3829 49.9943C36.4515 51.88 37.68 54.3029 37.6286 56.8229C37.6185 57.2919 37.7008 57.7583 37.8709 58.1955C38.0411 58.6326 38.2956 59.032 38.6201 59.3708C38.9446 59.7096 39.3326 59.9812 39.762 60.1701C40.1915 60.3589 40.6539 60.4613 41.1229 60.4714C41.5919 60.4816 42.0583 60.3992 42.4955 60.2291C42.9327 60.059 43.3321 59.8044 43.6709 59.4799C44.0097 59.1555 44.2812 58.7674 44.4701 58.338C44.6589 57.9086 44.7613 57.4461 44.7715 56.9771C44.8743 51.9314 42.4115 47.6457 39.2 44.7143C38.9207 44.4572 38.6329 44.2094 38.3372 43.9714L40.72 43.2514C42.6899 42.6512 44.4609 41.5299 45.846 40.006C47.2311 38.4821 48.1787 36.6123 48.5886 34.5943C49.9396 33.7482 51.1327 32.673 52.1143 31.4171C53.4345 33.1181 55.1415 34.4795 57.0935 35.3881C59.0456 36.2968 61.1862 36.7265 63.3377 36.6415C65.4892 36.5566 67.5894 35.9594 69.4637 34.8997C71.338 33.84 72.9324 32.3483 74.1143 30.5486C74.381 31.8667 74.5143 33.2076 74.5143 34.5714V40.48C74.6072 44.9578 73.3922 49.3655 71.0183 53.1634C68.6444 56.9613 65.2145 59.9845 61.1486 61.8629V77.1429C61.1486 77.9006 60.8476 78.6273 60.3118 79.1632C59.776 79.699 59.0492 80 58.2915 80H21.6858C20.928 80 20.2013 79.699 19.6654 79.1632C19.1296 78.6273 18.8286 77.9006 18.8286 77.1429V63.2571C10.8286 60.48 5.45718 49.4171 5.4629 41.8743C5.4629 35.3543 6.93147 28.5429 14.1658 28.5429L37.7886 28.1086ZM62.8 6.09143C60.7238 6.09143 58.7325 6.91622 57.2644 8.38436C55.7963 9.85251 54.9715 11.8437 54.9715 13.92V23.0914C54.9715 25.1677 55.7963 27.1589 57.2644 28.6271C58.7325 30.0952 60.7238 30.92 62.8 30.92C64.8763 30.92 66.8675 30.0952 68.3357 28.6271C69.8038 27.1589 70.6286 25.1677 70.6286 23.0914V13.92C70.6286 11.8437 69.8038 9.85251 68.3357 8.38436C66.8675 6.91622 64.8763 6.09143 62.8 6.09143Z" fill="white"/>
</svg>
