<svg width="80" height="71" viewBox="0 0 80 71" fill="none" xmlns="http://www.w3.org/2000/svg">
<g clip-path="url(#clip0_479_740)">
<path d="M37.2889 11.8148L21.1197 29.7867C20.4818 30.4939 20.5096 31.5895 21.1891 32.2689C25.4186 36.4984 32.2828 36.4984 36.5123 32.2689L40.9221 27.8592C41.5045 27.2768 42.2395 26.9578 42.9883 26.9023C43.9313 26.8191 44.902 27.1381 45.623 27.8592L70.1125 52.1406L79.875 44.375V4.4375L64.3438 13.3125L61.0434 11.1076C58.8536 9.65111 56.2821 8.87437 53.6521 8.875H43.8896C43.7371 8.875 43.5707 8.875 43.4182 8.88887C41.0746 9.01367 38.8697 10.0676 37.2889 11.8148ZM16.1691 25.3354L30.9793 8.875H25.4879C21.9518 8.875 18.5682 10.2756 16.0721 12.7717L15.5312 13.3125L0 4.4375V44.375L21.6883 62.4439C24.8777 65.1064 28.8992 66.5625 33.0455 66.5625H35.2227L34.252 65.5918C32.9484 64.2883 32.9484 62.1805 34.252 60.8908C35.5555 59.6012 37.6633 59.5873 38.9529 60.8908L44.6385 66.5764H45.8865C48.5352 66.5764 51.1283 65.9801 53.4857 64.8707L49.7832 61.1543C48.4797 59.8508 48.4797 57.743 49.7832 56.4533C51.0867 55.1637 53.1945 55.1498 54.4842 56.4533L58.9217 60.8908L61.3484 58.4641C62.5826 57.2299 62.9432 55.441 62.4023 53.874L43.2795 34.9037L41.2133 36.9699C34.3768 43.8064 23.3107 43.8064 16.4742 36.9699C13.2848 33.7805 13.16 28.6635 16.1691 25.3215V25.3354Z" fill="white"/>
</g>
<defs>
<clipPath id="clip0_479_740">
<rect width="79.875" height="71" fill="white"/>
</clipPath>
</defs>
</svg>
