<svg width="80" height="80" viewBox="0 0 80 80" fill="none" xmlns="http://www.w3.org/2000/svg">
<g clip-path="url(#clip0_479_719)">
<path d="M25 80V53.5C22 52 20 48.5 20 45V25C20 21.5 22 18.5 25 16.5V15C25 9.5 20.5 5 15 5C9.5 5 5 9.5 5 15C5 20.5 9.5 25 15 25H5C2.5 25 0 27.5 0 30V50C0 52.5 2.5 55 5 55V80H25ZM75 25H65C70.5 25 75 20.5 75 15C75 9.5 70.5 5 65 5C59.5 5 55 9.5 55 15V16.5C58 18.5 60 21.5 60 25V45C60 48.5 58 52 55 53.5V80H75V55C77.5 55 80 52.5 80 50V30C80 27.5 77.5 25 75 25ZM50 10C50.0301 11.3317 49.7939 12.656 49.3051 13.8951C48.8164 15.1343 48.085 16.2633 47.154 17.2159C46.2229 18.1685 45.1109 18.9254 43.8833 19.4424C42.6556 19.9593 41.3371 20.2257 40.0051 20.2261C38.673 20.2264 37.3543 19.9606 36.1264 19.4443C34.8985 18.928 33.7862 18.1716 32.8546 17.2194C31.9231 16.2673 31.1912 15.1387 30.7018 13.8998C30.2125 12.6609 29.9756 11.3367 30.005 10.005C30.0628 7.39219 31.1411 4.90582 33.0092 3.07815C34.8773 1.25047 37.3866 0.226728 40.0001 0.226075C42.6135 0.225421 45.1234 1.24791 46.9923 3.07465C48.8613 4.90139 49.9409 7.38722 50 10Z" fill="white"/>
<path d="M50 20H30C27.5 20 25 22.5 25 25V45C25 47.5 27.5 50 30 50V80H50V50C52.5 50 55 47.5 55 45V25C55 22.5 52.5 20 50 20Z" fill="white"/>
</g>
<defs>
<clipPath id="clip0_479_719">
<rect width="80" height="80" fill="white"/>
</clipPath>
</defs>
</svg>
