<svg width="80" height="80" viewBox="0 0 80 80" fill="none" xmlns="http://www.w3.org/2000/svg">
<path d="M40.3327 70C39.3882 70 38.5971 69.68 37.9593 69.04C37.3216 68.4 37.0016 67.6089 36.9993 66.6667C36.9993 66.2778 37.0827 65.8745 37.2493 65.4567C37.416 65.0389 37.666 64.6645 37.9993 64.3333L53.416 48.9167L50.9993 46.5L35.666 61.9167C35.3327 62.25 34.9716 62.5 34.5827 62.6667C34.1938 62.8333 33.7771 62.9167 33.3327 62.9167C32.3882 62.9167 31.5971 62.5978 30.9593 61.96C30.3216 61.3222 30.0016 60.53 29.9993 59.5833C29.9993 59.0278 30.0827 58.5689 30.2493 58.2067C30.416 57.8445 30.6382 57.5256 30.916 57.25L46.3327 41.8333L43.9993 39.5L28.5827 54.8333C28.2493 55.1667 27.8882 55.4167 27.4993 55.5833C27.1105 55.75 26.666 55.8333 26.166 55.8333C25.2771 55.8333 24.4993 55.5 23.8327 54.8333C23.166 54.1667 22.8327 53.3889 22.8327 52.5C22.8327 52.0556 22.916 51.6389 23.0827 51.25C23.2493 50.8611 23.4993 50.5 23.8327 50.1667L39.2493 34.75L36.8327 32.4167L21.4993 47.8333C21.2216 48.1111 20.8882 48.3333 20.4993 48.5C20.1105 48.6667 19.6382 48.75 19.0827 48.75C18.1382 48.75 17.346 48.43 16.706 47.79C16.066 47.15 15.7471 46.3589 15.7493 45.4167C15.7493 44.9722 15.8327 44.5556 15.9993 44.1667C16.166 43.7778 16.416 43.4167 16.7493 43.0833L35.3327 24.5L47.8327 37.0833C48.4438 37.6945 49.166 38.1811 49.9993 38.5433C50.8327 38.9056 51.666 39.0856 52.4993 39.0833C54.2771 39.0833 55.8327 38.4589 57.166 37.21C58.4993 35.9611 59.166 34.3633 59.166 32.4167C59.166 31.6389 59.0271 30.8333 58.7493 30C58.4716 29.1667 57.9716 28.3889 57.2493 27.6667L42.3327 12.75C43.2771 11.8611 44.3327 11.1811 45.4993 10.71C46.666 10.2389 47.8327 10.0022 48.9993 10C50.4438 10 51.7771 10.2367 52.9993 10.71C54.2216 11.1833 55.3327 11.9189 56.3327 12.9167L70.416 27.0833C71.416 28.0833 72.1527 29.1945 72.626 30.4167C73.0993 31.6389 73.3349 33.0556 73.3327 34.6667C73.3327 35.7778 73.0827 36.9033 72.5827 38.0433C72.0827 39.1833 71.3605 40.2245 70.416 41.1667L42.666 69C42.2216 69.4445 41.8327 69.7222 41.4993 69.8333C41.166 69.9445 40.7771 70 40.3327 70ZM11.7493 43.3333L9.58268 41.1667C8.63824 40.2778 7.91602 39.2222 7.41602 38C6.91602 36.7778 6.66602 35.5 6.66602 34.1667C6.66602 32.7222 6.94379 31.3889 7.49935 30.1667C8.0549 28.9445 8.74935 27.9167 9.58268 27.0833L23.666 12.9167C24.5549 12.0278 25.6105 11.3189 26.8327 10.79C28.0549 10.2611 29.2493 9.99779 30.416 10C31.916 10 33.2493 10.2089 34.416 10.6267C35.5827 11.0445 36.7216 11.8078 37.8327 12.9167L54.916 30C55.2493 30.3333 55.4994 30.6945 55.666 31.0833C55.8327 31.4722 55.916 31.8889 55.916 32.3333C55.916 33.2222 55.5827 34 54.916 34.6667C54.2493 35.3333 53.4716 35.6667 52.5827 35.6667C52.0827 35.6667 51.666 35.5978 51.3327 35.46C50.9993 35.3222 50.6382 35.0578 50.2493 34.6667L35.2493 19.8333L11.7493 43.3333Z" fill="white"/>
</svg>
