<svg width="80" height="80" viewBox="0 0 80 80" fill="none" xmlns="http://www.w3.org/2000/svg">
<path d="M3.33398 63.3335V53.3335C3.33398 51.4446 3.98732 49.8613 5.29398 48.5835C6.60065 47.3057 8.16954 46.6668 10.0007 46.6668H20.9173C22.0284 46.6668 23.084 46.9446 24.084 47.5002C25.084 48.0557 25.8895 48.8057 26.5007 49.7502C28.1118 51.9168 30.0984 53.6113 32.4606 54.8335C34.8229 56.0557 37.3362 56.6668 40.0006 56.6668C42.7229 56.6668 45.2651 56.0557 47.6273 54.8335C49.9895 53.6113 51.9473 51.9168 53.5006 49.7502C54.2229 48.8057 55.0706 48.0557 56.044 47.5002C57.0173 46.9446 58.0307 46.6668 59.084 46.6668H70.0006C71.8895 46.6668 73.4729 47.3057 74.7506 48.5835C76.0284 49.8613 76.6673 51.4446 76.6673 53.3335V63.3335C76.6673 64.2779 76.3473 65.0702 75.7073 65.7102C75.0673 66.3502 74.2762 66.6691 73.334 66.6668H56.6673C55.7229 66.6668 54.9318 66.3468 54.294 65.7068C53.6562 65.0668 53.3362 64.2757 53.334 63.3335V59.0835C51.3895 60.4724 49.2918 61.5279 47.0407 62.2502C44.7895 62.9724 42.4429 63.3335 40.0006 63.3335C37.6118 63.3335 35.2784 62.9591 33.0006 62.2102C30.7229 61.4613 28.6118 60.3913 26.6673 59.0002V63.3335C26.6673 64.2779 26.3473 65.0702 25.7073 65.7102C25.0673 66.3502 24.2762 66.6691 23.334 66.6668H6.66732C5.72287 66.6668 4.93176 66.3468 4.29398 65.7068C3.65621 65.0668 3.33621 64.2757 3.33398 63.3335ZM40.0006 53.3335C37.8895 53.3335 35.8895 52.8479 34.0007 51.8768C32.1118 50.9057 30.5284 49.5579 29.2506 47.8335C28.3062 46.4446 27.1262 45.3479 25.7106 44.5435C24.2951 43.7391 22.7529 43.3357 21.084 43.3335C22.3062 41.2779 24.8895 39.6524 28.834 38.4568C32.7784 37.2613 36.5007 36.6646 40.0006 36.6668C43.5006 36.6691 47.2229 37.2668 51.1673 38.4602C55.1118 39.6535 57.6951 41.2779 58.9173 43.3335C57.3062 43.3335 55.7784 43.7368 54.334 44.5435C52.8895 45.3502 51.6951 46.4468 50.7507 47.8335C49.5284 49.6113 47.9729 50.9724 46.084 51.9168C44.1951 52.8613 42.1673 53.3335 40.0006 53.3335ZM13.334 43.3335C10.5562 43.3335 8.1951 42.3613 6.25065 40.4168C4.30621 38.4724 3.33398 36.1113 3.33398 33.3335C3.33398 30.5002 4.30621 28.1257 6.25065 26.2102C8.1951 24.2946 10.5562 23.3357 13.334 23.3335C16.1673 23.3335 18.5429 24.2924 20.4607 26.2102C22.3784 28.1279 23.3362 30.5024 23.334 33.3335C23.334 36.1113 22.3762 38.4724 20.4607 40.4168C18.5451 42.3613 16.1695 43.3335 13.334 43.3335ZM66.6673 43.3335C63.8895 43.3335 61.5284 42.3613 59.584 40.4168C57.6395 38.4724 56.6673 36.1113 56.6673 33.3335C56.6673 30.5002 57.6395 28.1257 59.584 26.2102C61.5284 24.2946 63.8895 23.3357 66.6673 23.3335C69.5006 23.3335 71.8762 24.2924 73.794 26.2102C75.7118 28.1279 76.6695 30.5024 76.6673 33.3335C76.6673 36.1113 75.7095 38.4724 73.794 40.4168C71.8784 42.3613 69.5029 43.3335 66.6673 43.3335ZM40.0006 33.3335C37.2229 33.3335 34.8618 32.3613 32.9173 30.4168C30.9729 28.4724 30.0007 26.1113 30.0007 23.3335C30.0007 20.5002 30.9729 18.1257 32.9173 16.2102C34.8618 14.2946 37.2229 13.3357 40.0006 13.3335C42.834 13.3335 45.2095 14.2924 47.1273 16.2102C49.0451 18.1279 50.0029 20.5024 50.0006 23.3335C50.0006 26.1113 49.0429 28.4724 47.1273 30.4168C45.2118 32.3613 42.8362 33.3335 40.0006 33.3335Z" fill="white"/>
</svg>
