<svg width="80" height="80" viewBox="0 0 80 80" fill="none" xmlns="http://www.w3.org/2000/svg">
<path d="M36.6674 6.6665C43.143 6.66551 49.3977 9.02086 54.2642 13.293C59.1306 17.5651 62.2763 23.462 63.1141 29.8832L70.6141 41.6798C71.1074 42.4565 71.0074 43.6132 69.8641 44.1065L63.3341 46.8998V56.6665C63.3341 58.4346 62.6317 60.1303 61.3815 61.3805C60.1312 62.6308 58.4355 63.3332 56.6674 63.3332H50.0041L50.0007 73.3332H20.0007V61.0198C20.0007 57.0865 18.5474 53.3632 15.8507 50.0032C12.7097 46.0814 10.7407 41.3519 10.1704 36.3598C9.60009 31.3677 10.4518 26.316 12.6274 21.7869C14.8029 17.2577 18.2139 13.4354 22.4671 10.7602C26.7203 8.08507 31.6428 6.666 36.6674 6.6665ZM34.9007 25.8765C33.8008 24.8137 32.3274 24.2254 30.7979 24.2384C29.2684 24.2514 27.8052 24.8646 26.7234 25.9459C25.6417 27.0272 25.0279 28.4902 25.0143 30.0197C25.0007 31.5491 25.5884 33.0228 26.6507 34.1232L36.6674 44.1432L46.6841 34.1232C47.2411 33.585 47.6854 32.9412 47.9909 32.2294C48.2965 31.5177 48.4573 30.7522 48.4639 29.9777C48.4704 29.2031 48.3227 28.435 48.0292 27.7182C47.7358 27.0013 47.3025 26.3501 46.7547 25.8025C46.2069 25.2549 45.5555 24.8219 44.8385 24.5288C44.1216 24.2356 43.3534 24.0882 42.5789 24.095C41.8043 24.1019 41.0389 24.263 40.3273 24.5689C39.6157 24.8747 38.9721 25.3193 38.4341 25.8765L36.6674 27.6432L34.9007 25.8765Z" fill="white"/>
</svg>
