<svg width="80" height="80" viewBox="0 0 80 80" fill="none" xmlns="http://www.w3.org/2000/svg">
<path d="M68.3327 36.6668H63.3327V23.3335C63.3327 21.5654 62.6303 19.8697 61.3801 18.6195C60.1298 17.3692 58.4341 16.6668 56.666 16.6668H43.3327V11.6668C43.3327 9.45669 42.4547 7.33708 40.8919 5.77427C39.3291 4.21147 37.2095 3.3335 34.9993 3.3335C32.7892 3.3335 30.6696 4.21147 29.1068 5.77427C27.544 7.33708 26.666 9.45669 26.666 11.6668V16.6668H13.3327C11.5646 16.6668 9.86888 17.3692 8.61864 18.6195C7.36839 19.8697 6.66602 21.5654 6.66602 23.3335V36.0002H11.666C16.666 36.0002 20.666 40.0002 20.666 45.0002C20.666 50.0002 16.666 54.0002 11.666 54.0002H6.66602V66.6668C6.66602 68.4349 7.36839 70.1306 8.61864 71.3809C9.86888 72.6311 11.5646 73.3335 13.3327 73.3335H25.9993V68.3335C25.9993 63.3335 29.9993 59.3335 34.9993 59.3335C39.9993 59.3335 43.9993 63.3335 43.9993 68.3335V73.3335H56.666C58.4341 73.3335 60.1298 72.6311 61.3801 71.3809C62.6303 70.1306 63.3327 68.4349 63.3327 66.6668V53.3335H68.3327C70.5428 53.3335 72.6624 52.4555 74.2252 50.8927C75.788 49.3299 76.666 47.2103 76.666 45.0002C76.666 42.79 75.788 40.6704 74.2252 39.1076C72.6624 37.5448 70.5428 36.6668 68.3327 36.6668Z" fill="white"/>
</svg>
