<svg width="80" height="80" viewBox="0 0 80 80" fill="none" xmlns="http://www.w3.org/2000/svg">
<g clip-path="url(#clip0_479_713)">
<path fill-rule="evenodd" clip-rule="evenodd" d="M40 5.3332C30.8058 5.3332 21.9882 8.98557 15.487 15.4868C8.9857 21.9881 5.33333 30.8057 5.33333 39.9999H3.42032e-07C-0.00105089 31.9593 2.42113 24.1051 6.95057 17.4617C11.48 10.8183 17.9065 5.69411 25.3916 2.75762C32.8768 -0.178865 41.0732 -0.791372 48.9117 0.999998C56.7501 2.79137 63.8668 6.90346 69.3333 12.7999V-0.000129185H74.6667V21.3332H53.3333V15.9999H65.0133C61.782 12.6229 57.8992 9.93644 53.5998 8.10303C49.3005 6.26963 44.6739 5.32735 40 5.3332ZM40 74.6665C44.5525 74.6665 49.0604 73.7699 53.2664 72.0277C57.4723 70.2855 61.2939 67.732 64.513 64.5129C67.7321 61.2938 70.2857 57.4722 72.0278 53.2662C73.77 49.0603 74.6667 44.5524 74.6667 39.9999H80C80 48.04 77.577 55.8935 73.0472 62.5361C68.5173 69.1786 62.0908 74.3019 54.6059 77.2378C47.1209 80.1736 38.925 80.7856 31.087 78.9941C23.2491 77.2026 16.1329 73.0906 10.6667 67.1945V79.9999H5.33333V58.6665H26.6667V63.9999H14.9867C18.218 67.3769 22.1008 70.0633 26.4002 71.8967C30.6995 73.7301 35.3261 74.6724 40 74.6665Z" fill="white"/>
</g>
<defs>
<clipPath id="clip0_479_713">
<rect width="80" height="80" fill="white"/>
</clipPath>
</defs>
</svg>
