<svg width="80" height="80" viewBox="0 0 80 80" fill="none" xmlns="http://www.w3.org/2000/svg">
<path d="M76.6673 13.6665V7.6665L70.6673 6.99984C70.334 6.99984 68.334 6.6665 65.0007 6.6665C51.334 6.6665 41.334 10.6665 35.6673 17.6665C31.334 14.9998 25.334 13.3332 18.334 13.3332C15.0007 13.3332 12.6673 13.6665 12.6673 13.6665L6.33398 14.6665L6.66732 20.3332C7.00065 30.3332 12.0007 49.3332 29.334 49.3332H30.0007V60.6665C17.334 62.3332 6.66732 66.6665 6.66732 66.6665V73.3332H73.334V66.6665C73.334 66.6665 62.6673 62.3332 50.0007 60.6665V49.9998C71.0007 49.6665 76.6673 25.9998 76.6673 13.6665ZM40.0007 59.9998H36.6673V41.3332C36.6673 41.3332 36.0007 29.9998 26.6673 29.9998C26.6673 29.9998 31.6673 32.6665 33.0007 42.3332C31.6673 42.6665 30.334 42.6665 29.334 42.6665C14.0007 42.6665 13.334 20.3332 13.334 20.3332C13.334 20.3332 15.334 19.9998 18.334 19.9998C24.6673 19.9998 35.0007 21.3332 38.0007 30.3332C39.6673 15.3332 56.6673 13.3332 65.0007 13.3332C68.0007 13.3332 70.0007 13.6665 70.0007 13.6665C70.0007 13.6665 70.0007 43.6665 49.0007 43.6665H46.6673C46.6673 36.9998 53.334 26.9998 53.334 26.9998C43.334 30.3332 43.334 43.3332 43.334 43.3332V59.9998H40.0007Z" fill="white"/>
</svg>
