<svg width="19" height="21" viewBox="0 0 19 21" fill="none" xmlns="http://www.w3.org/2000/svg">
<path d="M9.09765 11.1236C8.74966 11.1249 8.41174 11.2406 8.13585 11.4527C7.85996 11.6648 7.66137 11.9616 7.5706 12.2975C7.47983 12.6335 7.50192 12.9899 7.63346 13.3121C7.765 13.6343 7.99872 13.9044 8.29868 14.0808V16.3462H9.91611V14.0808C10.1534 13.9404 10.3504 13.741 10.4878 13.502C10.6253 13.2629 10.6985 12.9924 10.7005 12.7167V12.7167C10.7005 12.5066 10.6589 12.2987 10.5783 12.1048C10.4976 11.9109 10.3794 11.7348 10.2304 11.5867C10.0815 11.4387 9.90469 11.3215 9.71029 11.2421C9.51588 11.1626 9.30768 11.1223 9.09765 11.1236V11.1236Z" stroke="#575DFB" stroke-linecap="round" stroke-linejoin="round"/>
<path d="M15.0844 7.46487H3.10462C1.94227 7.46487 1 8.40714 1 9.56949V17.8954C1 19.0577 1.94227 20 3.10462 20H15.0844C16.2467 20 17.189 19.0577 17.189 17.8954V9.56949C17.189 8.40714 16.2467 7.46487 15.0844 7.46487Z" stroke="#575DFB" stroke-width="2" stroke-linecap="round" stroke-linejoin="round"/>
<path d="M3.90625 7.46487V6.19333C3.90625 4.81598 4.4534 3.49503 5.42734 2.52109C6.40128 1.54715 7.72223 1 9.09958 1C10.4769 1 11.7979 1.54715 12.7718 2.52109C13.7458 3.49503 14.2929 4.81598 14.2929 6.19333V7.46487" stroke="#575DFB" stroke-width="2" stroke-linecap="round" stroke-linejoin="round"/>
</svg>
