<svg width="36" height="36" viewBox="0 0 36 36" fill="none" xmlns="http://www.w3.org/2000/svg">
<path d="M16.4677 4.60683C16.8411 3.45772 18.4668 3.45772 18.8401 4.60683L21.2943 12.1599C21.4612 12.6737 21.9401 13.0217 22.4805 13.0217H30.4222C31.6304 13.0217 32.1328 14.5678 31.1553 15.278L24.7303 19.946C24.2932 20.2636 24.1102 20.8266 24.2772 21.3405L26.7313 28.8935C27.1047 30.0426 25.7895 30.9982 24.812 30.288L18.387 25.6199C17.9499 25.3023 17.358 25.3023 16.9208 25.6199L10.4958 30.288C9.51833 30.9982 8.20313 30.0426 8.57649 28.8935L11.0306 21.3405C11.1976 20.8266 11.0147 20.2636 10.5775 19.946L4.15254 15.278C3.17505 14.5678 3.67742 13.0217 4.88566 13.0217H12.8274C13.3677 13.0217 13.8466 12.6737 14.0136 12.1599L16.4677 4.60683Z" fill="white"/>
</svg>
