<svg width="349" height="16" viewBox="0 0 349 16" fill="none" xmlns="http://www.w3.org/2000/svg">
<path d="M6 13.3333C8.94552 13.3333 11.3333 10.9455 11.3333 8C11.3333 5.05448 8.94552 2.66667 6 2.66667C3.05448 2.66667 0.666667 5.05448 0.666667 8C0.666667 10.9455 3.05448 13.3333 6 13.3333ZM348.707 8.70711C349.098 8.31658 349.098 7.68342 348.707 7.29289L342.343 0.928932C341.953 0.538408 341.319 0.538408 340.929 0.928932C340.538 1.31946 340.538 1.95262 340.929 2.34315L346.586 8L340.929 13.6569C340.538 14.0474 340.538 14.6805 340.929 15.0711C341.319 15.4616 341.953 15.4616 342.343 15.0711L348.707 8.70711ZM6 8V9L348 9V8V7L6 7V8Z" fill="#B9FD50"/>
</svg>
